<svg width="43.000000" height="30.000000" viewBox="0 0 43 30" fill="none" xmlns="http://www.w3.org/2000/svg" xmlns:xlink="http://www.w3.org/1999/xlink">
	<desc>
			Created with Pixso.
	</desc>
	<defs/>
	<path id="path" d="M34.7 10.69C33.73 10.69 32.79 10.89 31.88 11.28L27.69 3.05L32.04 3.05C32.21 3.05 32.38 3.09 32.55 3.17C32.71 3.25 32.85 3.36 32.98 3.5C33.1 3.64 33.2 3.81 33.27 4C33.34 4.18 33.37 4.38 33.37 4.58C33.37 4.78 33.4 4.98 33.47 5.17C33.54 5.35 33.64 5.52 33.76 5.66C33.89 5.8 34.03 5.91 34.19 5.99C34.36 6.07 34.53 6.11 34.7 6.11C34.88 6.11 35.05 6.07 35.21 5.99C35.38 5.91 35.52 5.8 35.65 5.66C35.77 5.52 35.87 5.35 35.93 5.17C36 4.98 36.04 4.78 36.04 4.58C36.04 4.28 36.01 3.98 35.96 3.69C35.91 3.39 35.83 3.1 35.73 2.83C35.63 2.55 35.51 2.28 35.36 2.03C35.22 1.78 35.05 1.55 34.86 1.34C34.68 1.13 34.48 0.94 34.26 0.77C34.04 0.6 33.81 0.46 33.57 0.34C33.32 0.23 33.07 0.14 32.82 0.08C32.56 0.02 32.3 -7.63e-6 32.04 -7.63e-6L25.37 -7.63e-6C25.25 0 25.14 0.01 25.03 0.05C24.91 0.08 24.81 0.13 24.7 0.2C24.6 0.27 24.51 0.35 24.43 0.44C24.35 0.54 24.28 0.64 24.22 0.76C24.16 0.88 24.12 1 24.08 1.13C24.05 1.26 24.04 1.39 24.04 1.52C24.04 1.66 24.06 1.79 24.09 1.92C24.12 2.05 24.16 2.17 24.22 2.29L26.16 6.11L16.58 6.11L13.86 0.76C13.74 0.52 13.57 0.34 13.37 0.2C13.16 0.06 12.94 0 12.7 -7.63e-6L8.04 -7.63e-6C7.86 -7.63e-6 7.69 0.03 7.53 0.11C7.36 0.19 7.22 0.3 7.09 0.44C6.97 0.59 6.87 0.75 6.81 0.94C6.74 1.13 6.7 1.32 6.7 1.52C6.7 1.73 6.74 1.92 6.81 2.11C6.87 2.3 6.97 2.46 7.09 2.6C7.22 2.75 7.36 2.86 7.53 2.94C7.69 3.01 7.86 3.05 8.04 3.05L11.94 3.05L14.22 7.54L11.61 11.66C11.31 11.49 11 11.34 10.69 11.21C10.38 11.09 10.06 10.98 9.74 10.9C9.41 10.82 9.08 10.76 8.75 10.73C8.42 10.69 8.09 10.68 7.76 10.69C7.43 10.71 7.1 10.74 6.77 10.8C6.44 10.86 6.12 10.94 5.8 11.05C5.48 11.15 5.17 11.28 4.87 11.43C4.56 11.58 4.27 11.75 3.98 11.94C3.69 12.13 3.42 12.34 3.15 12.57C2.89 12.8 2.64 13.05 2.4 13.32C2.16 13.58 1.94 13.87 1.74 14.16C1.53 14.46 1.34 14.77 1.17 15.1C0.99 15.42 0.84 15.76 0.7 16.1C0.57 16.45 0.45 16.81 0.35 17.17C0.25 17.53 0.18 17.9 0.12 18.28C0.06 18.65 0.02 19.03 0.01 19.41C-0.01 19.79 -0.01 20.17 0.02 20.55C0.04 20.93 0.08 21.3 0.15 21.68C0.21 22.05 0.3 22.42 0.4 22.78C0.51 23.14 0.63 23.49 0.77 23.83C0.92 24.18 1.08 24.51 1.25 24.83C1.43 25.15 1.63 25.46 1.84 25.75C2.05 26.04 2.28 26.32 2.52 26.58C2.76 26.84 3.02 27.08 3.28 27.31C3.55 27.53 3.83 27.74 4.12 27.92C4.41 28.11 4.71 28.27 5.02 28.41C5.33 28.55 5.64 28.67 5.96 28.77C6.28 28.87 6.61 28.94 6.93 28.99C7.26 29.05 7.59 29.07 7.93 29.08C8.26 29.08 8.59 29.06 8.92 29.02C9.25 28.98 9.57 28.91 9.9 28.82C10.22 28.73 10.54 28.62 10.85 28.49C11.16 28.35 11.46 28.2 11.75 28.02C12.05 27.84 12.33 27.65 12.6 27.43C12.87 27.21 13.13 26.98 13.38 26.72C13.63 26.47 13.86 26.2 14.08 25.91C14.29 25.62 14.49 25.32 14.68 25C14.86 24.69 15.03 24.36 15.18 24.02C15.33 23.68 15.46 23.33 15.57 22.97C15.68 22.61 15.77 22.25 15.85 21.88C15.92 21.51 15.97 21.13 16 20.75C16.03 20.38 16.04 20 16.03 19.62C16.02 19.24 15.99 18.86 15.94 18.48C15.89 18.11 15.82 17.73 15.73 17.37C15.64 17 15.53 16.64 15.4 16.29C15.27 15.94 15.12 15.6 14.96 15.28C14.79 14.95 14.61 14.63 14.41 14.33C14.21 14.02 13.99 13.74 13.76 13.46L15.69 10.43L20.89 20.63C20.97 20.82 21.08 20.98 21.22 21.12C21.36 21.25 21.52 21.35 21.7 21.41C21.87 21.47 22.05 21.49 22.23 21.47C22.42 21.44 22.59 21.38 22.75 21.27C22.91 21.16 23.04 21.03 23.15 20.86C23.26 20.69 23.34 20.5 23.38 20.29C23.42 20.09 23.42 19.88 23.39 19.67C23.36 19.47 23.29 19.28 23.19 19.1L18.14 9.17L27.71 9.17L29.58 12.83C29.34 13.06 29.12 13.3 28.9 13.56C28.69 13.82 28.49 14.09 28.3 14.37C28.12 14.66 27.95 14.96 27.79 15.26C27.63 15.57 27.49 15.89 27.37 16.22C27.25 16.54 27.14 16.88 27.05 17.22C26.96 17.56 26.89 17.91 26.83 18.26C26.78 18.61 26.74 18.96 26.72 19.32C26.71 19.67 26.71 20.03 26.72 20.38C26.74 20.74 26.78 21.09 26.83 21.44C26.88 21.79 26.95 22.14 27.04 22.48C27.13 22.82 27.24 23.16 27.36 23.49C27.48 23.81 27.62 24.13 27.78 24.44C27.93 24.75 28.1 25.05 28.29 25.33C28.47 25.62 28.67 25.89 28.89 26.15C29.1 26.41 29.32 26.65 29.56 26.88C29.8 27.11 30.05 27.32 30.31 27.52C30.57 27.72 30.84 27.9 31.11 28.06C31.39 28.22 31.68 28.36 31.97 28.48C32.26 28.6 32.56 28.7 32.86 28.79C33.16 28.87 33.47 28.93 33.78 28.97C34.08 29.01 34.39 29.03 34.7 29.03C35.01 29.03 35.32 29.01 35.63 28.97C35.94 28.93 36.25 28.87 36.55 28.79C36.85 28.71 37.15 28.6 37.44 28.48C37.73 28.36 38.02 28.22 38.3 28.06C38.57 27.9 38.84 27.72 39.1 27.53C39.36 27.33 39.61 27.12 39.85 26.89C40.09 26.66 40.31 26.42 40.53 26.16C40.74 25.9 40.94 25.63 41.13 25.34C41.31 25.06 41.48 24.76 41.64 24.45C41.79 24.14 41.93 23.82 42.05 23.5C42.18 23.17 42.28 22.84 42.37 22.49C42.46 22.15 42.53 21.81 42.59 21.46C42.64 21.11 42.68 20.75 42.7 20.4C42.71 20.04 42.71 19.69 42.7 19.33C42.68 18.97 42.64 18.62 42.59 18.27C42.53 17.92 42.46 17.57 42.37 17.23C42.28 16.89 42.18 16.56 42.05 16.23C41.93 15.9 41.79 15.58 41.64 15.28C41.48 14.97 41.31 14.67 41.12 14.38C40.94 14.1 40.74 13.83 40.53 13.57C40.31 13.31 40.09 13.07 39.85 12.84C39.61 12.61 39.36 12.4 39.1 12.2C38.84 12 38.57 11.83 38.3 11.67C38.02 11.51 37.73 11.37 37.44 11.24C37.15 11.12 36.85 11.02 36.55 10.94C36.25 10.86 35.94 10.8 35.63 10.75C35.32 10.71 35.01 10.69 34.7 10.69ZM13.37 19.86C13.37 20.3 13.33 20.73 13.25 21.15C13.17 21.58 13.05 21.99 12.9 22.38C12.74 22.78 12.55 23.15 12.33 23.5C12.1 23.85 11.85 24.16 11.57 24.45C11.28 24.74 10.97 24.99 10.64 25.2C10.31 25.41 9.97 25.58 9.61 25.71C9.24 25.84 8.88 25.92 8.5 25.96C8.12 25.99 7.75 25.99 7.37 25.93C6.99 25.88 6.63 25.78 6.27 25.63C5.91 25.49 5.57 25.31 5.25 25.08C4.93 24.85 4.63 24.59 4.36 24.29C4.08 23.99 3.84 23.66 3.63 23.3C3.41 22.94 3.24 22.56 3.09 22.16C2.95 21.76 2.85 21.34 2.78 20.92C2.72 20.49 2.69 20.06 2.71 19.63C2.72 19.19 2.78 18.76 2.87 18.34C2.97 17.92 3.1 17.52 3.27 17.13C3.44 16.74 3.64 16.38 3.88 16.04C4.11 15.7 4.38 15.4 4.67 15.12C4.97 14.85 5.28 14.61 5.62 14.42C5.95 14.22 6.31 14.07 6.67 13.96C7.04 13.85 7.41 13.78 7.79 13.76C8.17 13.74 8.54 13.76 8.91 13.84C9.29 13.91 9.65 14.02 10 14.18L6.96 18.96C6.85 19.12 6.77 19.3 6.72 19.5C6.68 19.7 6.66 19.91 6.69 20.11C6.71 20.32 6.77 20.51 6.87 20.69C6.96 20.87 7.08 21.02 7.22 21.14C7.37 21.26 7.53 21.35 7.71 21.39C7.88 21.44 8.06 21.44 8.24 21.41C8.42 21.37 8.58 21.3 8.73 21.19C8.89 21.07 9.01 20.93 9.11 20.76L12.16 15.98C12.97 17.11 13.37 18.4 13.37 19.86ZM34.7 25.98C34.17 25.98 33.66 25.89 33.15 25.71C32.65 25.54 32.18 25.28 31.74 24.94C31.3 24.6 30.91 24.2 30.58 23.73C30.24 23.26 29.98 22.75 29.77 22.19C29.57 21.63 29.45 21.05 29.4 20.45C29.35 19.84 29.38 19.25 29.48 18.65C29.58 18.06 29.76 17.5 30.01 16.96C30.26 16.43 30.58 15.95 30.95 15.52L33.55 20.63C33.63 20.82 33.74 20.98 33.89 21.12C34.03 21.25 34.18 21.35 34.36 21.41C34.54 21.47 34.72 21.49 34.9 21.47C35.08 21.44 35.25 21.38 35.41 21.27C35.57 21.16 35.71 21.03 35.82 20.86C35.93 20.69 36 20.5 36.04 20.29C36.08 20.09 36.09 19.88 36.06 19.67C36.02 19.47 35.96 19.28 35.85 19.1L33.25 13.98C33.62 13.86 33.99 13.79 34.37 13.76C34.75 13.74 35.13 13.75 35.51 13.82C35.89 13.89 36.25 14 36.61 14.15C36.97 14.31 37.3 14.51 37.62 14.75C37.94 14.98 38.23 15.26 38.5 15.57C38.77 15.88 39.01 16.22 39.21 16.59C39.41 16.96 39.58 17.35 39.71 17.76C39.84 18.17 39.94 18.59 39.99 19.03C40.04 19.46 40.05 19.89 40.02 20.33C39.99 20.76 39.93 21.19 39.82 21.61C39.71 22.03 39.56 22.43 39.38 22.81C39.19 23.2 38.98 23.55 38.73 23.88C38.48 24.21 38.2 24.51 37.89 24.77C37.59 25.03 37.26 25.25 36.91 25.43C36.57 25.61 36.21 25.75 35.83 25.84C35.46 25.93 35.08 25.98 34.7 25.98Z" fill="#BF0808" fill-opacity="0.563218" fill-rule="nonzero"/>
</svg>
