<svg width="38.000000" height="38.000000" viewBox="0 0 38 38" fill="none" xmlns="http://www.w3.org/2000/svg" xmlns:xlink="http://www.w3.org/1999/xlink">
	<desc>
			Created with Pixso.
	</desc>
	<defs>
		<clipPath id="clip45_491">
			<rect id="信息" width="38.000000" height="38.000000" fill="white" fill-opacity="0"/>
		</clipPath>
	</defs>
	<g clip-path="url(#clip45_491)">
		<path id="path" d="M23.74 15.43L14.24 15.43C13.59 15.43 13.06 14.9 13.06 14.24C13.06 13.59 13.59 13.06 14.24 13.06L23.74 13.06C24.4 13.06 24.93 13.59 24.93 14.24C24.93 14.9 24.4 15.43 23.74 15.43Z" fill="#575B66" fill-opacity="1.000000" fill-rule="nonzero"/>
		<path id="path" d="M21.49 20.18L14.24 20.18C13.59 20.18 13.06 19.65 13.06 18.99C13.06 18.33 13.59 17.8 14.24 17.8L21.49 17.8C22.15 17.8 22.68 18.33 22.68 18.99C22.68 19.65 22.15 20.18 21.49 20.18Z" fill="#575B66" fill-opacity="1.000000" fill-rule="nonzero"/>
		<path id="path" d="M38 16.28C38 7.3 29.47 0 19 0C8.52 0 0 7.3 0 16.28C0 21.22 2.66 25.86 7.33 29.03C7.95 29.45 8.79 29.29 9.21 28.67C9.63 28.05 9.47 27.21 8.85 26.79C4.95 24.14 2.71 20.31 2.71 16.28C2.71 8.8 10.01 2.72 18.99 2.72C27.97 2.72 35.27 8.81 35.27 16.28C35.27 23.76 27.97 29.85 18.99 29.85C18.9 29.85 18.84 29.88 18.76 29.9C18.12 29.79 17.47 30.12 17.24 30.76C16.98 31.5 15.27 32.74 13.25 33.89C13.99 31.42 13.64 30.89 13.4 30.54C13.11 30.12 12.64 29.86 12.13 29.86C11.38 29.86 10.77 30.47 10.77 31.22C10.77 31.47 10.84 31.69 10.95 31.9C10.81 32.67 10.22 34.48 9.55 36.13C9.34 36.64 9.46 37.23 9.87 37.62C10.12 37.86 10.46 38 10.81 38C10.99 38 11.18 37.96 11.36 37.88C12.91 37.19 17.62 34.95 19.32 32.55C29.64 32.4 38 25.17 38 16.28Z" fill="#575B66" fill-opacity="1.000000" fill-rule="nonzero"/>
	</g>
</svg>
