<svg width="34.000000" height="35.000000" viewBox="0 0 34 35" fill="none" xmlns="http://www.w3.org/2000/svg" xmlns:xlink="http://www.w3.org/1999/xlink">
	<desc>
			Created with Pixso.
	</desc>
	<defs/>
	<path id="path" d="M20.53 0C20.78 0 21.01 0.05 21.23 0.15C21.46 0.24 21.65 0.38 21.82 0.55C22.16 0.88 22.33 1.33 22.31 1.79C22.36 2.72 21.6 3.52 20.61 3.58L12.65 3.58C11.63 3.54 10.85 2.73 10.9 1.79C10.85 0.85 11.63 0.04 12.64 0L20.53 0ZM29.16 2.09L29.15 2.1C32.11 2.1 33.53 3.78 33.53 6.22L33.53 30.35C33.53 33.28 32.02 34.43 28.91 34.43L4.25 34.43C1.14 34.43 0.02 32.96 0 30.35L0 6.21C0 3.78 0.79 2.09 3.99 2.09L8 2.09C7.96 2.29 7.94 2.48 7.94 2.68C7.94 4.19 9.09 5.68 10.59 5.68L22.69 5.68C24.09 5.68 25.27 4.19 25.27 2.68C25.27 2.48 25.25 2.29 25.21 2.09L29.16 2.09ZM8.78 19.25L14.22 24.7C14.29 24.76 14.36 24.81 14.43 24.86C14.51 24.91 14.58 24.95 14.67 24.98C14.75 25.01 14.83 25.04 14.92 25.06C15.01 25.07 15.1 25.08 15.19 25.08C15.27 25.08 15.36 25.07 15.45 25.06C15.54 25.04 15.62 25.01 15.7 24.98C15.79 24.95 15.87 24.91 15.94 24.86C16.02 24.81 16.09 24.76 16.15 24.7L25.95 14.91C26.02 14.85 26.07 14.78 26.12 14.7C26.18 14.63 26.22 14.55 26.25 14.47C26.29 14.38 26.32 14.3 26.33 14.21C26.35 14.12 26.36 14.03 26.36 13.94C26.36 13.85 26.35 13.76 26.33 13.67C26.32 13.58 26.29 13.5 26.25 13.41C26.22 13.33 26.18 13.25 26.12 13.18C26.07 13.1 26.02 13.03 25.95 12.97C25.89 12.91 25.82 12.85 25.75 12.8C25.67 12.75 25.59 12.71 25.51 12.67C25.43 12.64 25.34 12.61 25.25 12.59C25.17 12.58 25.08 12.57 24.99 12.57C24.9 12.57 24.81 12.58 24.72 12.59C24.64 12.61 24.55 12.64 24.47 12.67C24.39 12.71 24.31 12.75 24.23 12.8C24.16 12.85 24.09 12.91 24.03 12.97L15.19 21.79L10.72 17.33C10.66 17.26 10.59 17.21 10.52 17.16C10.44 17.11 10.36 17.07 10.28 17.04C10.2 17 10.11 16.98 10.02 16.96C9.94 16.94 9.85 16.93 9.76 16.93C9.67 16.93 9.58 16.94 9.49 16.96C9.41 16.98 9.32 17 9.24 17.04C9.16 17.07 9.08 17.11 9 17.16C8.93 17.21 8.86 17.26 8.8 17.33C8.73 17.39 8.67 17.46 8.62 17.53C8.57 17.6 8.53 17.68 8.49 17.76C8.46 17.85 8.43 17.93 8.41 18.02C8.39 18.11 8.38 18.2 8.38 18.29C8.38 18.37 8.39 18.46 8.4 18.55C8.42 18.64 8.45 18.73 8.48 18.81C8.51 18.89 8.56 18.97 8.61 19.04C8.66 19.12 8.71 19.19 8.78 19.25Z" fill="#575B66" fill-opacity="1.000000" fill-rule="nonzero"/>
</svg>
