<svg width="38.000000" height="38.000000" viewBox="0 0 38 38" fill="none" xmlns="http://www.w3.org/2000/svg" xmlns:xlink="http://www.w3.org/1999/xlink">
	<desc>
			Created with Pixso.
	</desc>
	<defs>
		<clipPath id="clip45_540">
			<rect id="处理中" width="38.000000" height="38.000000" fill="white" fill-opacity="0"/>
		</clipPath>
	</defs>
	<g clip-path="url(#clip45_540)">
		<path id="path" d="M28.5 7.91L30.08 7.91L30.08 1.58L7.91 1.58L7.91 7.91L9.49 7.91L9.49 13.45L16.46 19L9.49 24.54L9.49 30.08L7.91 30.08L7.91 36.41L30.08 36.41L30.08 30.08L28.5 30.08L28.5 24.54L21.53 19L28.5 13.45L28.5 7.91ZM25.33 26.12L25.33 27.23L19 28.5L12.66 27.23L12.66 26.12L19 21.05L25.33 26.12ZM22.32 14.25L15.67 14.25L12.66 11.87L12.66 7.91L25.33 7.91L25.33 11.87L22.32 14.25Z" fill="#575B66" fill-opacity="1.000000" fill-rule="nonzero"/>
	</g>
</svg>
