<svg width="38.000000" height="38.000000" viewBox="0 0 38 38" fill="none" xmlns="http://www.w3.org/2000/svg" xmlns:xlink="http://www.w3.org/1999/xlink">
	<desc>
			Created with Pixso.
	</desc>
	<defs>
		<clipPath id="clip45_550">
			<rect id="订单" width="38.000000" height="38.000000" fill="white" fill-opacity="0"/>
		</clipPath>
	</defs>
	<g clip-path="url(#clip45_550)">
		<path id="path" d="M29.68 34.43L8.31 34.43C6.34 34.43 4.74 32.84 4.74 30.87L4.74 7.13C4.74 5.16 6.34 3.56 8.31 3.56L29.68 3.56C31.64 3.56 33.24 5.16 33.24 7.13L33.24 30.87C33.25 32.83 31.64 34.43 29.68 34.43ZM8.31 5.93C7.66 5.93 7.12 6.47 7.12 7.12L7.12 30.86C7.12 31.52 7.66 32.05 8.31 32.05L29.68 32.05C30.34 32.05 30.86 31.52 30.86 30.86L30.86 7.12C30.86 6.47 30.34 5.93 29.68 5.93L8.31 5.93Z" fill="#575B66" fill-opacity="1.000000" fill-rule="nonzero"/>
		<path id="path" d="M23.78 20.21L10.67 20.21C10.02 20.21 9.49 19.68 9.49 19.02C9.49 18.37 10.02 17.84 10.67 17.84L23.78 17.84C24.44 17.84 24.97 18.37 24.97 19.02C24.97 19.68 24.44 20.21 23.78 20.21Z" fill="#575B66" fill-opacity="1.000000" fill-rule="nonzero"/>
		<path id="path" d="M27.26 27.29L10.67 27.29C10.01 27.29 9.48 26.76 9.48 26.1C9.48 25.45 10.01 24.92 10.67 24.92L27.26 24.92C27.92 24.92 28.45 25.45 28.45 26.1C28.45 26.76 27.92 27.29 27.26 27.29Z" fill="#575B66" fill-opacity="1.000000" fill-rule="nonzero"/>
		<path id="path" d="M9.49 11.33C9.49 12.31 10.28 13.11 11.27 13.11C12.25 13.11 13.05 12.31 13.05 11.33C13.05 10.34 12.25 9.54 11.27 9.54C10.28 9.54 9.49 10.34 9.49 11.33Z" fill="#575B66" fill-opacity="1.000000" fill-rule="nonzero"/>
		<path id="path" d="M17.18 11.33C17.18 12.31 17.98 13.11 18.96 13.11C19.94 13.11 20.74 12.31 20.74 11.33C20.74 10.34 19.94 9.54 18.96 9.54C17.98 9.54 17.18 10.34 17.18 11.33Z" fill="#575B66" fill-opacity="1.000000" fill-rule="nonzero"/>
		<path id="path" d="M24.9 11.33C24.9 12.31 25.7 13.11 26.68 13.11C27.67 13.11 28.46 12.31 28.46 11.33C28.46 10.34 27.67 9.54 26.68 9.54C25.7 9.54 24.9 10.34 24.9 11.33Z" fill="#575B66" fill-opacity="1.000000" fill-rule="nonzero"/>
	</g>
</svg>
