<svg width="46.000000" height="44.000000" viewBox="0 0 46 44" fill="none" xmlns="http://www.w3.org/2000/svg" xmlns:xlink="http://www.w3.org/1999/xlink">
	<desc>
			Created with Pixso.
	</desc>
	<defs/>
	<rect id="画板 41" width="46.000000" height="44.000000" fill="#FFFFFF" fill-opacity="0"/>
	<path id="path" d="M34 10L12 10C11.73 10 11.47 10.05 11.23 10.15C10.98 10.25 10.77 10.39 10.58 10.58C10.39 10.77 10.25 10.98 10.15 11.23C10.05 11.47 10 11.73 10 12L10 32C9.99 32.38 10.1 32.74 10.31 33.07C10.52 33.4 10.8 33.65 11.15 33.81C11.42 33.93 11.7 33.99 12 34C12.48 33.99 12.91 33.84 13.28 33.52C13.28 33.52 13.29 33.51 13.29 33.51L17.31 30L34 30C34.26 30 34.52 29.94 34.76 29.84C35.01 29.74 35.22 29.6 35.41 29.41C35.6 29.22 35.74 29.01 35.84 28.76C35.94 28.52 36 28.26 36 28L36 12C36 11.73 35.94 11.47 35.84 11.23C35.74 10.98 35.6 10.77 35.41 10.58C35.22 10.39 35.01 10.25 34.76 10.15C34.52 10.05 34.26 10 34 10ZM34 28L17.31 28C16.82 27.99 16.39 28.15 16.02 28.46L16.01 28.48L12 32L12 12L34 12L34 28Z" fill="#000000" fill-opacity="1.000000" fill-rule="nonzero"/>
</svg>
