<svg width="38.000000" height="38.000000" viewBox="0 0 38 38" fill="none" xmlns="http://www.w3.org/2000/svg" xmlns:xlink="http://www.w3.org/1999/xlink">
	<desc>
			Created with Pixso.
	</desc>
	<defs>
		<clipPath id="clip45_561">
			<rect id="付款" width="38.000000" height="38.000000" fill="white" fill-opacity="0"/>
		</clipPath>
	</defs>
	<g clip-path="url(#clip45_561)">
		<path id="path" d="M30.68 32.22L10.97 32.22C8.76 32.22 6.97 30.43 6.97 28.22L6.97 12.43C6.97 10.22 8.76 8.43 10.97 8.43L30.68 8.43C32.89 8.43 34.68 10.22 34.68 12.43L34.68 28.22C34.68 30.43 32.89 32.22 30.68 32.22ZM13.05 30.14L28.6 30.14C30.81 30.14 32.6 28.34 32.6 26.14L32.6 14.51C32.6 12.3 30.81 10.51 28.6 10.51L13.05 10.51C10.84 10.51 9.05 12.3 9.05 14.51L9.05 26.14C9.05 28.34 10.84 30.14 13.05 30.14Z" fill="#575B66" fill-opacity="1.000000" fill-rule="nonzero"/>
		<path id="path" d="M7.73 15.07L30.59 15.07L30.59 16.93L7.73 16.93L7.73 15.07ZM11.28 23.07L14.84 23.07L14.84 24.92L11.28 24.92L11.28 23.07Z" fill="#575B66" fill-opacity="1.000000" fill-rule="nonzero"/>
	</g>
</svg>
