<svg width="32.000000" height="32.000000" viewBox="0 0 32 32" fill="none" xmlns="http://www.w3.org/2000/svg" xmlns:xlink="http://www.w3.org/1999/xlink">
	<desc>
			Created with Pixso.
	</desc>
	<defs>
		<clipPath id="clip23_433">
			<rect id="Gear" width="32.000000" height="32.000000" fill="white" fill-opacity="0"/>
		</clipPath>
	</defs>
	<g clip-path="url(#clip23_433)">
		<path id="path" d="M18.99 9.03C18.6 9.03 18.21 9.07 17.83 9.15C17.45 9.22 17.07 9.33 16.71 9.48C16.35 9.63 16.01 9.82 15.68 10.04C15.36 10.25 15.05 10.5 14.78 10.78C14.5 11.05 14.25 11.36 14.04 11.68C13.82 12.01 13.63 12.35 13.48 12.71C13.33 13.07 13.22 13.45 13.15 13.83C13.07 14.21 13.03 14.6 13.03 14.99C13.03 15.38 13.07 15.77 13.15 16.16C13.22 16.54 13.33 16.91 13.48 17.27C13.63 17.64 13.82 17.98 14.04 18.31C14.25 18.63 14.5 18.93 14.78 19.21C15.05 19.49 15.36 19.73 15.68 19.95C16.01 20.17 16.35 20.35 16.71 20.5C17.07 20.65 17.45 20.76 17.83 20.84C18.21 20.92 18.6 20.96 18.99 20.96C19.38 20.96 19.77 20.92 20.16 20.84C20.54 20.76 20.91 20.65 21.27 20.5C21.64 20.35 21.98 20.17 22.31 19.95C22.63 19.73 22.93 19.49 23.21 19.21C23.49 18.93 23.73 18.63 23.95 18.31C24.17 17.98 24.35 17.64 24.5 17.27C24.65 16.91 24.76 16.54 24.84 16.16C24.92 15.77 24.96 15.38 24.96 14.99C24.96 14.6 24.92 14.21 24.84 13.83C24.76 13.45 24.65 13.07 24.5 12.71C24.35 12.35 24.17 12.01 23.95 11.68C23.73 11.36 23.48 11.06 23.21 10.78C22.93 10.5 22.63 10.26 22.3 10.04C21.98 9.82 21.64 9.64 21.27 9.49C20.91 9.34 20.54 9.22 20.16 9.15C19.77 9.07 19.38 9.03 18.99 9.03ZM18.99 18.97C18.73 18.97 18.47 18.94 18.22 18.89C17.96 18.84 17.71 18.77 17.47 18.67C17.23 18.57 17 18.44 16.78 18.3C16.57 18.15 16.37 17.99 16.18 17.8C16 17.62 15.83 17.42 15.69 17.2C15.54 16.98 15.42 16.76 15.32 16.51C15.22 16.27 15.15 16.02 15.09 15.77C15.04 15.51 15.02 15.25 15.02 14.99C15.02 14.73 15.04 14.47 15.09 14.22C15.15 13.96 15.22 13.71 15.32 13.47C15.42 13.23 15.54 13 15.69 12.78C15.83 12.57 16 12.37 16.18 12.18C16.37 12 16.57 11.83 16.78 11.69C17 11.54 17.23 11.42 17.47 11.32C17.71 11.22 17.96 11.15 18.22 11.09C18.47 11.04 18.73 11.02 18.99 11.02C19.25 11.02 19.51 11.04 19.77 11.09C20.02 11.15 20.27 11.22 20.51 11.32C20.76 11.42 20.98 11.54 21.2 11.69C21.42 11.83 21.62 12 21.8 12.18C21.99 12.37 22.15 12.57 22.3 12.78C22.44 13 22.57 13.23 22.67 13.47C22.77 13.71 22.84 13.96 22.89 14.22C22.94 14.47 22.97 14.73 22.97 14.99C22.97 15.25 22.94 15.51 22.89 15.77C22.84 16.02 22.77 16.27 22.67 16.51C22.57 16.76 22.44 16.98 22.3 17.2C22.15 17.42 21.99 17.62 21.8 17.8C21.62 17.99 21.42 18.15 21.2 18.3C20.98 18.44 20.76 18.57 20.51 18.67C20.27 18.77 20.02 18.84 19.77 18.89C19.51 18.94 19.25 18.97 18.99 18.97ZM29.92 15.26C29.93 15.08 29.93 14.9 29.92 14.72L31.78 12.41C31.99 12.15 32.05 11.86 31.96 11.53C31.66 10.39 31.21 9.3 30.61 8.27C30.44 7.98 30.19 7.82 29.86 7.78L26.92 7.46C26.8 7.33 26.67 7.2 26.55 7.08L26.2 4.13C26.16 3.8 26 3.55 25.71 3.38C24.68 2.79 23.59 2.34 22.45 2.03C22.12 1.95 21.83 2.01 21.57 2.22L19.26 4.06C19.08 4.06 18.9 4.06 18.72 4.06L16.41 2.21C16.15 2 15.86 1.94 15.53 2.03C14.39 2.33 13.3 2.78 12.27 3.38C11.98 3.55 11.82 3.8 11.78 4.13L11.46 7.08C11.33 7.2 11.2 7.32 11.08 7.45L8.13 7.79C7.8 7.83 7.55 7.99 7.38 8.28C6.79 9.31 6.34 10.39 6.03 11.54C5.95 11.86 6.01 12.15 6.22 12.42L8.06 14.72C8.06 14.9 8.06 15.08 8.06 15.26L6.21 17.58C6 17.84 5.94 18.13 6.03 18.45C6.33 19.6 6.78 20.69 7.38 21.71C7.55 22 7.8 22.16 8.13 22.2L11.07 22.53C11.2 22.66 11.32 22.78 11.44 22.9L11.79 25.86C11.83 26.19 11.99 26.44 12.28 26.6C13.31 27.2 14.39 27.65 15.54 27.95C15.86 28.04 16.15 27.98 16.42 27.77L18.72 25.92C18.9 25.93 19.08 25.93 19.26 25.92L21.58 27.78C21.84 27.99 22.13 28.05 22.45 27.96C23.6 27.66 24.69 27.21 25.71 26.61C26 26.44 26.16 26.19 26.2 25.86L26.53 22.92C26.66 22.8 26.78 22.67 26.9 22.55L29.86 22.2C30.19 22.16 30.44 22 30.6 21.71C31.2 20.68 31.65 19.59 31.95 18.45C32.04 18.12 31.98 17.83 31.77 17.57L29.92 15.26ZM27.92 14.45C27.95 14.81 27.95 15.17 27.92 15.53C27.91 15.79 27.98 16.01 28.14 16.21L29.9 18.42C29.7 19.06 29.44 19.68 29.13 20.28L26.32 20.6C26.07 20.62 25.86 20.73 25.69 20.92C25.45 21.19 25.19 21.45 24.93 21.69C24.74 21.86 24.63 22.07 24.6 22.32L24.29 25.13C23.69 25.44 23.07 25.7 22.42 25.9L20.22 24.14C20.04 23.99 19.83 23.92 19.6 23.92L19.54 23.92C19.18 23.94 18.82 23.94 18.46 23.92C18.21 23.9 17.98 23.98 17.78 24.14L15.57 25.9C14.93 25.7 14.31 25.44 13.71 25.13L13.39 22.32C13.36 22.07 13.25 21.86 13.06 21.69C12.79 21.45 12.54 21.19 12.3 20.93C12.13 20.74 11.92 20.63 11.67 20.6L8.86 20.28C8.55 19.69 8.29 19.07 8.09 18.42L9.85 16.22C10.01 16.02 10.08 15.79 10.07 15.54C10.04 15.18 10.04 14.82 10.07 14.46C10.08 14.2 10.01 13.98 9.85 13.78L8.09 11.57C8.29 10.93 8.55 10.31 8.86 9.71L11.66 9.39C11.92 9.36 12.13 9.25 12.3 9.06C12.54 8.79 12.79 8.54 13.06 8.3C13.25 8.13 13.36 7.92 13.39 7.66L13.7 4.86C14.3 4.55 14.92 4.29 15.56 4.09L17.77 5.85C17.97 6.01 18.19 6.08 18.45 6.07C18.81 6.04 19.17 6.04 19.53 6.07C19.78 6.08 20.01 6.01 20.21 5.85L22.42 4.09C23.06 4.29 23.68 4.55 24.28 4.86L24.6 7.66C24.62 7.92 24.73 8.13 24.92 8.3C25.19 8.54 25.45 8.79 25.69 9.06C25.86 9.25 26.07 9.36 26.32 9.39L29.13 9.7C29.44 10.3 29.7 10.92 29.9 11.56L28.14 13.77C27.98 13.97 27.91 14.2 27.92 14.45Z" fill="#000000" fill-opacity="1.000000" fill-rule="nonzero"/>
	</g>
</svg>
