<svg width="31.000000" height="31.000000" viewBox="0 0 31 31" fill="none" xmlns="http://www.w3.org/2000/svg" xmlns:xlink="http://www.w3.org/1999/xlink">
	<desc>
			Created with Pixso.
	</desc>
	<defs/>
	<path id="path" d="M27.66 24.5C27.29 24.99 26.9 25.45 26.48 25.9C26.06 26.34 25.61 26.76 25.14 27.15C24.67 27.55 24.18 27.91 23.67 28.25C23.15 28.58 22.62 28.89 22.08 29.16C21.53 29.43 20.97 29.68 20.39 29.88C19.82 30.09 19.23 30.27 18.63 30.41C18.04 30.55 17.43 30.65 16.83 30.72C16.22 30.79 15.61 30.83 14.99 30.83C6.25 30.83 -0.84 23.74 -0.84 15C-0.84 6.25 6.25 -0.84 14.99 -0.84C23.74 -0.84 30.83 6.25 30.83 15C30.83 15.05 30.82 15.1 30.81 15.15C30.8 15.2 30.79 15.25 30.77 15.3C30.75 15.35 30.72 15.39 30.69 15.43C30.67 15.48 30.63 15.52 30.6 15.55C30.56 15.59 30.52 15.62 30.48 15.65C30.43 15.68 30.39 15.71 30.34 15.73C30.29 15.75 30.24 15.76 30.19 15.77C30.14 15.78 30.09 15.79 30.04 15.79C29.98 15.79 29.93 15.78 29.88 15.77C29.83 15.76 29.78 15.75 29.73 15.73C29.69 15.71 29.64 15.68 29.6 15.65C29.55 15.62 29.51 15.59 29.48 15.55C29.44 15.52 29.41 15.48 29.38 15.43C29.35 15.39 29.33 15.35 29.31 15.3C29.29 15.25 29.27 15.2 29.26 15.15C29.25 15.1 29.24 15.05 29.24 15C29.24 7.13 22.86 0.75 14.99 0.75C7.13 0.75 0.74 7.13 0.74 15C0.74 22.87 7.13 29.25 14.99 29.25C15.58 29.25 16.16 29.21 16.74 29.14C17.32 29.07 17.89 28.96 18.46 28.82C19.03 28.68 19.58 28.5 20.13 28.29C20.67 28.08 21.2 27.84 21.72 27.56C22.23 27.29 22.73 26.98 23.2 26.65C23.68 26.31 24.14 25.95 24.57 25.56C25 25.16 25.41 24.75 25.79 24.3C26.17 23.86 26.52 23.4 26.85 22.91L23.7 22.91C23.65 22.91 23.6 22.91 23.55 22.9C23.5 22.89 23.45 22.87 23.4 22.85C23.35 22.83 23.3 22.81 23.26 22.78C23.22 22.75 23.18 22.72 23.14 22.68C23.11 22.64 23.07 22.6 23.04 22.56C23.01 22.52 22.99 22.47 22.97 22.42C22.95 22.37 22.94 22.33 22.93 22.27C22.92 22.22 22.91 22.17 22.91 22.12C22.91 21.68 23.27 21.33 23.7 21.33L28.46 21.33C28.67 21.33 28.87 21.42 29.01 21.56L29.01 21.56C29.16 21.71 29.24 21.9 29.24 22.12L29.24 26.87C29.24 27.31 28.89 27.66 28.45 27.66C28.02 27.66 27.66 27.3 27.66 26.87L27.66 24.5ZM16.72 11.83L19.74 11.83C20.18 11.83 20.54 12.18 20.54 12.62C20.54 13.06 20.18 13.41 19.74 13.41L15.79 13.41L15.79 16.58L19.74 16.58C20.18 16.58 20.54 16.93 20.54 17.37C20.54 17.81 20.18 18.16 19.74 18.16L15.79 18.16L15.79 22.91C15.79 23.35 15.44 23.7 14.99 23.7C14.56 23.7 14.2 23.35 14.2 22.91L14.2 18.16L10.25 18.16C10.2 18.16 10.15 18.16 10.1 18.15C10.04 18.14 9.99 18.12 9.95 18.1C9.9 18.08 9.85 18.06 9.81 18.03C9.76 18 9.72 17.97 9.69 17.93C9.65 17.89 9.62 17.85 9.59 17.81C9.56 17.77 9.53 17.72 9.51 17.67C9.49 17.63 9.48 17.58 9.47 17.53C9.46 17.47 9.45 17.42 9.45 17.37C9.45 16.93 9.81 16.58 10.25 16.58L14.2 16.58L14.2 13.41L10.25 13.41C10.2 13.41 10.15 13.41 10.1 13.4C10.04 13.39 9.99 13.37 9.95 13.35C9.9 13.33 9.85 13.31 9.81 13.28C9.76 13.25 9.72 13.22 9.69 13.18C9.65 13.14 9.62 13.1 9.59 13.06C9.56 13.02 9.53 12.97 9.51 12.92C9.49 12.88 9.48 12.83 9.47 12.78C9.46 12.72 9.45 12.67 9.45 12.62C9.45 12.18 9.81 11.83 10.25 11.83L13.27 11.83L9.64 7.59C9.61 7.55 9.59 7.51 9.56 7.47C9.54 7.42 9.52 7.37 9.51 7.33C9.49 7.28 9.48 7.23 9.48 7.18C9.47 7.13 9.47 7.08 9.48 7.03C9.48 6.97 9.49 6.92 9.51 6.88C9.52 6.83 9.54 6.78 9.56 6.74C9.59 6.69 9.61 6.65 9.64 6.61C9.68 6.57 9.71 6.53 9.75 6.5C9.79 6.47 9.83 6.44 9.87 6.41C9.92 6.39 9.96 6.37 10.01 6.35C10.06 6.33 10.11 6.32 10.16 6.32C10.21 6.31 10.26 6.31 10.31 6.31C10.36 6.31 10.41 6.32 10.46 6.33C10.51 6.35 10.56 6.36 10.6 6.39C10.65 6.41 10.69 6.43 10.73 6.46C10.77 6.49 10.81 6.53 10.85 6.56L14.99 11.4L19.14 6.56C19.18 6.52 19.21 6.49 19.26 6.45C19.3 6.42 19.34 6.39 19.39 6.37C19.43 6.35 19.48 6.33 19.53 6.31C19.58 6.3 19.63 6.29 19.68 6.29C19.74 6.28 19.79 6.28 19.84 6.29C19.89 6.3 19.94 6.31 19.99 6.32C20.04 6.34 20.09 6.36 20.13 6.39C20.18 6.41 20.22 6.44 20.26 6.48C20.3 6.51 20.34 6.55 20.37 6.59C20.4 6.63 20.43 6.67 20.45 6.72C20.48 6.76 20.49 6.81 20.51 6.86C20.52 6.91 20.53 6.96 20.54 7.02C20.54 7.07 20.54 7.12 20.53 7.17C20.53 7.22 20.51 7.27 20.5 7.32C20.48 7.37 20.46 7.42 20.44 7.47C20.41 7.51 20.38 7.55 20.35 7.59L16.72 11.83Z" fill="#3D3D3D" fill-opacity="1.000000" fill-rule="nonzero"/>
</svg>
