<svg width="29.000000" height="21.000000" viewBox="0 0 29 21" fill="none" xmlns="http://www.w3.org/2000/svg" xmlns:xlink="http://www.w3.org/1999/xlink">
	<desc>
			Created with Pixso.
	</desc>
	<defs/>
	<path id="path" d="M28.48 8.26L28.48 0.66C28.48 -0.14 27.84 -0.79 27.06 -0.79L0.93 -0.79C0.15 -0.79 -0.49 -0.14 -0.49 0.66L-0.49 8.26C-0.48 8.26 -0.47 8.26 -0.46 8.26C0.7 8.26 1.63 9.21 1.63 10.39C1.63 11.57 0.7 12.53 -0.46 12.53C-0.47 12.53 -0.48 12.53 -0.49 12.53L-0.49 19.33C-0.49 20.13 0.15 20.78 0.93 20.78L27.06 20.78C27.84 20.78 28.48 20.13 28.48 19.33L28.48 12.53C27.32 12.53 26.38 11.57 26.38 10.39C26.38 9.21 27.32 8.26 28.48 8.26ZM20.81 6.57L12.85 14.73C12.68 14.91 12.46 15 12.22 15C11.99 15 11.76 14.91 11.6 14.73L7.16 10.18C7 10.01 6.9 9.78 6.9 9.54C6.9 9.3 7 9.07 7.16 8.9C7.2 8.86 7.25 8.82 7.3 8.79C7.35 8.76 7.4 8.73 7.45 8.71C7.5 8.68 7.56 8.67 7.62 8.65C7.67 8.64 7.73 8.64 7.79 8.64C7.85 8.64 7.91 8.64 7.96 8.65C8.02 8.67 8.08 8.68 8.13 8.71C8.19 8.73 8.24 8.76 8.28 8.79C8.33 8.82 8.38 8.86 8.42 8.9L12.22 12.74L19.56 5.25C19.92 4.89 20.49 4.9 20.83 5.27C21.18 5.63 21.17 6.21 20.81 6.57Z" fill="#575B66" fill-opacity="1.000000" fill-rule="nonzero"/>
</svg>
