<svg width="34.000000" height="35.000000" viewBox="0 0 34 35" fill="none" xmlns="http://www.w3.org/2000/svg" xmlns:xlink="http://www.w3.org/1999/xlink">
	<desc>
			Created with Pixso.
	</desc>
	<defs/>
	<path id="path" d="M23.26 12.47L8.36 12.47C7.78 12.47 7.31 12 7.31 11.41C7.31 10.83 7.78 10.36 8.36 10.36L23.26 10.36C23.85 10.36 24.32 10.83 24.32 11.41C24.32 12 23.84 12.47 23.26 12.47ZM16.74 21.16L8.36 21.16C7.78 21.16 7.31 20.69 7.31 20.1C7.31 19.52 7.78 19.05 8.36 19.05L16.74 19.05C17.33 19.05 17.8 19.52 17.8 20.1C17.8 20.69 17.32 21.16 16.74 21.16ZM22.2 20.1C22.2 20.17 22.21 20.24 22.22 20.31C22.24 20.38 22.26 20.44 22.28 20.51C22.31 20.57 22.34 20.63 22.38 20.69C22.42 20.75 22.46 20.8 22.51 20.85C22.56 20.9 22.62 20.94 22.67 20.98C22.73 21.02 22.79 21.05 22.86 21.08C22.92 21.11 22.99 21.13 23.05 21.14C23.12 21.15 23.19 21.16 23.26 21.16C23.33 21.16 23.4 21.15 23.47 21.14C23.53 21.13 23.6 21.11 23.66 21.08C23.73 21.05 23.79 21.02 23.85 20.98C23.9 20.94 23.96 20.9 24.01 20.85C24.05 20.8 24.1 20.75 24.14 20.69C24.18 20.63 24.21 20.57 24.23 20.51C24.26 20.44 24.28 20.38 24.29 20.31C24.31 20.24 24.32 20.17 24.32 20.1C24.32 20.03 24.31 19.97 24.29 19.9C24.28 19.83 24.26 19.76 24.23 19.7C24.21 19.64 24.18 19.57 24.14 19.52C24.1 19.46 24.05 19.41 24.01 19.36C23.96 19.31 23.9 19.26 23.85 19.23C23.79 19.19 23.73 19.15 23.66 19.13C23.6 19.1 23.53 19.08 23.47 19.07C23.4 19.05 23.33 19.05 23.26 19.05C23.19 19.05 23.12 19.05 23.05 19.07C22.99 19.08 22.92 19.1 22.86 19.13C22.79 19.15 22.73 19.19 22.67 19.23C22.62 19.26 22.56 19.31 22.51 19.36C22.46 19.41 22.42 19.46 22.38 19.52C22.34 19.57 22.31 19.64 22.28 19.7C22.26 19.76 22.24 19.83 22.22 19.9C22.21 19.97 22.2 20.03 22.2 20.1ZM23.26 22.21C22.09 22.21 21.15 21.27 21.15 20.1C21.15 18.94 22.09 17.99 23.26 17.99C24.42 17.99 25.37 18.94 25.37 20.1C25.37 21.27 24.42 22.21 23.26 22.21ZM24.64 33.34C24.18 33.34 23.71 33.23 23.28 32.99L17.32 29.7C16.81 29.42 16.63 28.78 16.91 28.27C17.19 27.76 17.84 27.57 18.35 27.85L24.3 31.14C24.63 31.33 25.04 31.22 25.24 30.9L31.75 20.35C32.06 19.86 32.71 19.7 33.2 20.01C33.7 20.31 33.85 20.97 33.55 21.46L27.03 32.01C26.5 32.87 25.59 33.34 24.64 33.34ZM14.98 34.18L2.81 34.18C1.26 34.18 0 32.92 0 31.37L0 2.81C0 1.26 1.26 0 2.81 0L27.97 0C29.52 0 30.78 1.26 30.78 2.81L30.78 15.03C30.78 15.61 30.31 16.09 29.73 16.09C29.14 16.09 28.67 15.61 28.67 15.03L28.67 2.81C28.67 2.42 28.35 2.11 27.97 2.11L2.81 2.11C2.42 2.11 2.11 2.42 2.11 2.81L2.11 31.37C2.11 31.75 2.42 32.07 2.81 32.07L14.98 32.07C15.56 32.07 16.04 32.54 16.04 33.13C16.04 33.71 15.56 34.18 14.98 34.18Z" fill="#575B66" fill-opacity="1.000000" fill-rule="nonzero"/>
</svg>
