<svg width="360.000000" height="115.000000" viewBox="0 0 360 115" fill="none" xmlns="http://www.w3.org/2000/svg" xmlns:xlink="http://www.w3.org/1999/xlink">
	<desc>
			Created with Pixso.
	</desc>
	<defs>
		<clipPath id="clip73_70">
			<rect id="svg" width="360.000000" height="114.098358" fill="white" fill-opacity="0"/>
		</clipPath>
	</defs>
	<g clip-path="url(#clip73_70)">
		<path id="path" d="M359.83 -3.06e-5L-6.11e-5 -3.06e-5L-6.11e-5 114.09L359.83 114.09L359.83 -3.06e-5Z" fill="#FFFFFF" fill-opacity="1.000000" fill-rule="nonzero"/>
		<path id="path" d="M175.82 16.57C179.01 15.88 181.46 12.98 181.46 9.38C181.46 5.28 178.35 2 174.51 2C170.67 2 167.57 5.29 167.57 9.38C167.57 12.78 169.72 15.56 172.63 16.46L155.71 48.02L136.83 30.45C138.52 29.36 139.64 27.47 139.64 25.27C139.64 21.87 137.02 19.17 133.82 19.17C130.63 19.17 128 21.87 128 25.27C128 28.67 130.62 31.37 133.81 31.37C134.66 31.37 135.41 31.17 136.16 30.87L142.64 65.21C145.75 69.7 158.81 73 174.5 73C189.81 73 202.68 69.51 206.15 65.21L214.04 31.35L195.34 48.33L175.82 16.57ZM215.18 19.17C211.98 19.17 209.36 21.87 209.36 25.27C209.36 28.67 211.98 31.37 215.18 31.37C218.37 31.37 221 28.67 221 25.27C221 21.87 218.36 19.17 215.18 19.17Z" fill="#E8E53E" fill-opacity="1.000000" fill-rule="nonzero"/>
		<path id="SVIP&amp;#x4f1a;&amp;#x5458;&amp;#x5c0a;&amp;#x4eab;&amp;#x6743;" d="M165.23 99.71L171.53 81.56L167.49 81.56L163.56 94.34Q163.26 95.31 163.17 96.18L163.1 96.18Q163.02 95.34 162.73 94.39L158.81 81.56L154.63 81.56L160.86 99.71L165.23 99.71ZM177.61 99.71L177.61 81.56L173.75 81.56L173.75 99.71L177.61 99.71ZM185.68 99.71L185.68 93.38L187.67 93.38Q190.11 93.44 191.9 92.39Q192.36 92.12 192.78 91.77Q193.66 91.05 194.16 90.12Q194.83 88.89 194.83 87.3Q194.83 84.9 193.65 83.5Q192 81.56 188.06 81.56L181.81 81.56L181.81 99.71L185.68 99.71ZM185.68 90.42L185.68 84.56L187.39 84.56Q189.33 84.56 190.16 85.52Q190.76 86.22 190.76 87.45Q190.76 88.73 190.13 89.45Q189.3 90.42 187.35 90.42L185.68 90.42Z" fill="#85745E" fill-opacity="1.000000" fill-rule="evenodd"/>
		<rect id="rect" x="259.759094" y="77.953308" width="8.508502" height="8.508502" transform="rotate(-56.0676 259.759094 77.953308)" fill="#000000" fill-opacity="0"/>
		<rect id="rect" x="259.759094" y="77.953308" width="8.508502" height="8.508502" transform="rotate(-56.0676 259.759094 77.953308)" stroke="#D5BA9E" stroke-opacity="1.000000" stroke-width="1.000000"/>
		<rect id="rect" x="261.959045" y="77.953278" width="4.862001" height="4.862001" transform="rotate(-56.0676 261.959045 77.953278)" fill="#D5BA9E" fill-opacity="1.000000"/>
		<path id="path" d="M268.67 76.52L326.25 77.95L268.67 79.37L268.67 76.52Z" fill="#E8E53E" fill-opacity="1.000000" fill-rule="nonzero"/>
		<rect id="rect" width="8.508502" height="8.508502" transform="matrix(-0.558215 -0.829696 -0.558215 0.829696 100.075 77.9533)" fill="#000000" fill-opacity="0"/>
		<rect id="rect" width="8.508502" height="8.508502" transform="matrix(-0.558215 -0.829696 -0.558215 0.829696 100.075 77.9533)" stroke="#D5BA9E" stroke-opacity="1.000000" stroke-width="1.000000"/>
		<rect id="rect" width="4.862004" height="4.862004" transform="matrix(-0.558215 -0.829696 -0.558215 0.829696 97.8749 77.9533)" fill="#D5BA9E" fill-opacity="1.000000"/>
		<path id="path" d="M91.15 76.52L33.58 77.95L91.15 79.37L91.15 76.52Z" fill="#E8E53E" fill-opacity="1.000000" fill-rule="nonzero"/>
	</g>
</svg>
