<svg width="30.000000" height="31.000000" viewBox="0 0 30 31" fill="none" xmlns="http://www.w3.org/2000/svg" xmlns:xlink="http://www.w3.org/1999/xlink">
	<desc>
			Created with Pixso.
	</desc>
	<defs>
		<clipPath id="clip62_108">
			<rect id="icon_bus" width="30.000000" height="30.157896" fill="white" fill-opacity="0"/>
		</clipPath>
	</defs>
	<g clip-path="url(#clip62_108)">
		<path id="path" d="M9.16 18.83C9.28 18.83 9.39 18.84 9.51 18.87C9.62 18.89 9.73 18.92 9.84 18.97C9.95 19.01 10.05 19.07 10.14 19.13C10.24 19.19 10.33 19.27 10.41 19.35C10.49 19.43 10.56 19.52 10.63 19.62C10.69 19.72 10.75 19.82 10.79 19.92C10.84 20.03 10.87 20.14 10.89 20.26C10.92 20.37 10.93 20.49 10.93 20.6C10.93 20.72 10.92 20.83 10.89 20.95C10.87 21.06 10.84 21.17 10.79 21.28C10.75 21.39 10.69 21.49 10.63 21.59C10.56 21.68 10.49 21.77 10.41 21.86C10.33 21.94 10.24 22.01 10.14 22.08C10.05 22.14 9.95 22.2 9.84 22.24C9.73 22.28 9.62 22.32 9.51 22.34C9.39 22.36 9.28 22.37 9.16 22.37C9.05 22.37 8.93 22.36 8.82 22.34C8.71 22.32 8.6 22.28 8.49 22.24C8.38 22.2 8.28 22.14 8.18 22.08C8.09 22.01 8 21.94 7.92 21.86C7.84 21.77 7.76 21.68 7.7 21.59C7.63 21.49 7.58 21.39 7.54 21.28C7.49 21.17 7.46 21.06 7.44 20.95C7.41 20.83 7.4 20.72 7.4 20.6C7.4 20.49 7.41 20.37 7.44 20.26C7.46 20.14 7.49 20.03 7.54 19.92C7.58 19.82 7.63 19.72 7.7 19.62C7.76 19.52 7.84 19.43 7.92 19.35C8 19.27 8.09 19.19 8.18 19.13C8.28 19.07 8.38 19.01 8.49 18.97C8.6 18.92 8.71 18.89 8.82 18.87C8.93 18.84 9.05 18.83 9.16 18.83ZM20.85 18.83C20.97 18.83 21.08 18.84 21.2 18.87C21.31 18.89 21.42 18.92 21.53 18.97C21.63 19.01 21.73 19.07 21.83 19.13C21.93 19.19 22.02 19.27 22.1 19.35C22.18 19.43 22.25 19.52 22.32 19.62C22.38 19.72 22.44 19.82 22.48 19.92C22.52 20.03 22.56 20.14 22.58 20.26C22.6 20.37 22.61 20.49 22.61 20.6C22.61 20.72 22.6 20.83 22.58 20.95C22.56 21.06 22.52 21.17 22.48 21.28C22.44 21.39 22.38 21.49 22.32 21.59C22.25 21.68 22.18 21.77 22.1 21.86C22.02 21.94 21.93 22.01 21.83 22.08C21.73 22.14 21.63 22.2 21.53 22.24C21.42 22.28 21.31 22.32 21.2 22.34C21.08 22.36 20.97 22.37 20.85 22.37C20.74 22.37 20.62 22.36 20.51 22.34C20.39 22.32 20.28 22.28 20.18 22.24C20.07 22.2 19.97 22.14 19.87 22.08C19.78 22.01 19.69 21.94 19.61 21.86C19.52 21.77 19.45 21.68 19.39 21.59C19.32 21.49 19.27 21.39 19.22 21.28C19.18 21.17 19.15 21.06 19.12 20.95C19.1 20.83 19.09 20.72 19.09 20.6C19.09 20.49 19.1 20.37 19.12 20.26C19.15 20.14 19.18 20.03 19.22 19.92C19.27 19.82 19.32 19.72 19.39 19.62C19.45 19.52 19.52 19.43 19.61 19.35C19.69 19.27 19.78 19.19 19.87 19.13C19.97 19.07 20.07 19.01 20.18 18.97C20.28 18.92 20.39 18.89 20.51 18.87C20.62 18.84 20.74 18.83 20.85 18.83ZM23.74 8.79C24.43 8.79 25 9.36 25 10.06L25 19.63C25 20.1 24.62 20.48 24.16 20.48L23.46 20.48C23.41 20.48 23.36 20.47 23.32 20.45C23.27 20.43 23.23 20.41 23.19 20.38C23.15 20.35 23.12 20.31 23.1 20.26C23.07 20.22 23.06 20.18 23.05 20.13C23.03 20 23 19.87 22.95 19.74C22.91 19.62 22.85 19.5 22.79 19.38C22.72 19.26 22.65 19.15 22.57 19.05C22.48 18.95 22.39 18.85 22.29 18.77C22.19 18.68 22.08 18.61 21.97 18.54C21.85 18.47 21.73 18.41 21.61 18.37C21.48 18.32 21.36 18.29 21.23 18.26C21.1 18.24 20.96 18.23 20.83 18.23C20.7 18.23 20.57 18.24 20.44 18.26C20.31 18.29 20.18 18.32 20.06 18.37C19.93 18.41 19.81 18.47 19.7 18.54C19.59 18.61 19.48 18.68 19.38 18.77C19.28 18.85 19.18 18.95 19.1 19.05C19.02 19.15 18.94 19.26 18.88 19.38C18.81 19.5 18.76 19.62 18.71 19.74C18.67 19.87 18.64 20 18.62 20.13C18.61 20.18 18.59 20.22 18.57 20.26C18.54 20.31 18.51 20.35 18.47 20.38C18.44 20.41 18.39 20.43 18.35 20.45C18.3 20.47 18.25 20.48 18.2 20.48L11.79 20.48C11.74 20.48 11.7 20.47 11.65 20.45C11.6 20.43 11.56 20.41 11.52 20.38C11.49 20.35 11.45 20.31 11.43 20.26C11.4 20.22 11.39 20.18 11.38 20.13C11.36 20 11.33 19.87 11.28 19.74C11.24 19.62 11.18 19.5 11.12 19.38C11.05 19.27 10.98 19.16 10.9 19.05C10.81 18.95 10.72 18.86 10.62 18.77C10.52 18.68 10.41 18.61 10.3 18.54C10.18 18.47 10.06 18.42 9.94 18.37C9.81 18.33 9.69 18.29 9.56 18.27C9.43 18.25 9.3 18.23 9.16 18.23C9.03 18.23 8.9 18.25 8.77 18.27C8.64 18.29 8.51 18.33 8.39 18.37C8.27 18.42 8.15 18.47 8.03 18.54C7.92 18.61 7.81 18.68 7.71 18.77C7.61 18.86 7.52 18.95 7.43 19.05C7.35 19.16 7.27 19.27 7.21 19.38C7.14 19.5 7.09 19.62 7.05 19.74C7 19.87 6.97 20 6.95 20.13C6.94 20.18 6.92 20.22 6.9 20.26C6.87 20.31 6.84 20.35 6.81 20.38C6.77 20.41 6.73 20.43 6.68 20.45C6.63 20.47 6.59 20.48 6.54 20.48L5.83 20.48C5.78 20.48 5.72 20.47 5.67 20.46C5.62 20.45 5.56 20.43 5.51 20.41C5.46 20.39 5.41 20.36 5.37 20.33C5.32 20.3 5.28 20.27 5.24 20.23C5.2 20.19 5.17 20.15 5.14 20.1C5.11 20.05 5.08 20.01 5.06 19.96C5.04 19.9 5.02 19.85 5.01 19.8C5 19.74 5 19.69 5 19.63L5 11.61C5 11.52 5 11.43 5.01 11.34C5.02 11.24 5.03 11.15 5.05 11.06C5.07 10.97 5.09 10.88 5.12 10.79C5.14 10.71 5.17 10.62 5.21 10.53C5.24 10.45 5.28 10.36 5.33 10.28C5.37 10.2 5.42 10.12 5.47 10.04C5.52 9.97 5.57 9.89 5.63 9.82C5.69 9.75 5.75 9.68 5.82 9.62C5.88 9.55 5.95 9.49 6.02 9.43C6.09 9.37 6.17 9.32 6.24 9.27C6.32 9.21 6.4 9.17 6.48 9.12C6.56 9.08 6.65 9.04 6.73 9.01C6.82 8.97 6.9 8.94 6.99 8.91C7.08 8.89 7.17 8.86 7.26 8.85C7.35 8.83 7.44 8.81 7.53 8.8C7.62 8.8 7.71 8.79 7.81 8.79L23.74 8.79ZM10.85 11.75L8.95 11.75C8.03 11.75 7.28 12.51 7.28 13.44L7.28 14.61C7.28 14.84 7.46 15.03 7.7 15.03L9.71 15.03C9.84 15.03 9.97 14.97 10.05 14.86L11.19 13.33C11.24 13.26 11.27 13.17 11.27 13.08L11.27 12.17C11.27 12.12 11.26 12.06 11.24 12.01C11.22 11.96 11.19 11.92 11.15 11.88C11.11 11.84 11.06 11.81 11.01 11.79C10.96 11.76 10.91 11.75 10.85 11.75ZM16.54 11.75L13.35 11.75C13.29 11.75 13.24 11.76 13.18 11.78C13.13 11.8 13.09 11.84 13.05 11.87C13.01 11.91 12.98 11.96 12.96 12.01C12.94 12.06 12.93 12.12 12.93 12.17L12.93 14.61C12.93 14.84 13.12 15.03 13.35 15.03L16.55 15.03C16.78 15.03 16.96 14.84 16.96 14.61L16.96 12.17C16.96 12.12 16.95 12.06 16.93 12.01C16.91 11.96 16.88 11.91 16.84 11.87C16.8 11.83 16.76 11.8 16.71 11.78C16.65 11.76 16.6 11.75 16.54 11.75ZM22.26 11.75L19.06 11.75C19 11.75 18.95 11.76 18.9 11.78C18.85 11.8 18.8 11.83 18.76 11.87C18.72 11.91 18.69 11.96 18.67 12.01C18.65 12.06 18.64 12.12 18.64 12.17L18.64 14.61C18.64 14.84 18.83 15.03 19.06 15.03L22.26 15.03C22.49 15.03 22.68 14.84 22.68 14.61L22.68 12.17C22.68 12.12 22.67 12.06 22.64 12.01C22.62 11.96 22.59 11.91 22.55 11.87C22.51 11.83 22.47 11.8 22.42 11.78C22.37 11.76 22.31 11.75 22.26 11.75Z" fill="#2876F1" fill-opacity="1.000000" fill-rule="nonzero"/>
	</g>
</svg>
