<svg width="15.000000" height="17.000000" viewBox="0 0 15 17" fill="none" xmlns="http://www.w3.org/2000/svg" xmlns:xlink="http://www.w3.org/1999/xlink">
	<desc>
			Created with Pixso.
	</desc>
	<defs/>
	<path id="Vector" d="M14.2 11.27C14.2 13.75 14.2 14.98 13.61 15.52C13.33 15.78 12.97 15.95 12.6 15.99C11.81 16.08 10.89 15.26 9.04 13.63C8.23 12.91 7.82 12.55 7.35 12.46C7.11 12.41 6.88 12.41 6.64 12.46C6.17 12.55 5.76 12.91 4.95 13.63C3.1 15.26 2.18 16.08 1.39 15.99C1.02 15.95 0.66 15.78 0.38 15.52C-0.2 14.98 -0.2 13.75 -0.2 11.27L-0.2 7.27C-0.2 3.84 -0.2 2.13 0.85 1.06C1.9 0 3.6 0 7 0C10.39 0 12.09 0 13.14 1.06C14.2 2.13 14.2 3.84 14.2 7.27L14.2 11.27Z" stroke="#585DE4" stroke-opacity="1.000000" stroke-width="1.500000"/>
</svg>
