<svg width="26.000000" height="26.000000" viewBox="0 0 26 26" fill="none" xmlns="http://www.w3.org/2000/svg" xmlns:xlink="http://www.w3.org/1999/xlink">
	<desc>
			Created with Pixso.
	</desc>
	<defs>
		<clipPath id="clip74_223">
			<rect id=" 订单" width="26.000000" height="26.000000" fill="white" fill-opacity="0"/>
		</clipPath>
	</defs>
	<g clip-path="url(#clip74_223)">
		<path id="path" d="M7.58 8.66L17.33 8.66L17.33 9.74L7.58 9.74L7.58 8.66ZM7.58 11.91L15.16 11.91L15.16 13L7.58 13L7.58 11.91ZM7.58 15.16L15.16 15.16L15.16 16.25L7.58 16.25L7.58 15.16ZM7.58 3.24C7.58 2.65 8.06 2.16 8.66 2.16L17.33 2.16C17.93 2.16 18.41 2.65 18.41 3.24L18.41 4.33C18.41 4.4 18.4 4.47 18.39 4.54C18.38 4.61 18.36 4.68 18.33 4.74C18.3 4.81 18.27 4.87 18.23 4.93C18.19 4.99 18.15 5.04 18.1 5.09C18.05 5.14 17.99 5.19 17.93 5.23C17.87 5.27 17.81 5.3 17.75 5.33C17.68 5.36 17.61 5.38 17.54 5.39C17.47 5.4 17.4 5.41 17.33 5.41L8.66 5.41C8.06 5.41 7.58 4.93 7.58 4.33L7.58 3.24ZM4.33 23.83L21.66 23.83C22.26 23.83 22.75 23.34 22.75 22.74L22.75 4.33C22.75 3.73 22.26 3.24 21.66 3.24L20.05 3.24L20.05 4.33L21.66 4.33C21.66 4.33 21.66 22.75 21.66 22.75L4.33 22.75L4.33 4.33C4.33 4.33 5.99 4.33 5.99 4.33L5.99 3.24L4.33 3.24C4.26 3.24 4.19 3.25 4.12 3.27C4.05 3.28 3.98 3.3 3.91 3.33C3.85 3.35 3.79 3.39 3.73 3.43C3.67 3.47 3.61 3.51 3.56 3.56C3.51 3.61 3.47 3.67 3.43 3.73C3.39 3.79 3.35 3.85 3.33 3.92C3.3 3.98 3.28 4.05 3.27 4.12C3.25 4.19 3.25 4.26 3.25 4.33L3.25 22.74C3.24 22.81 3.25 22.88 3.27 22.95C3.28 23.02 3.3 23.09 3.33 23.16C3.35 23.22 3.39 23.29 3.43 23.35C3.47 23.4 3.51 23.46 3.56 23.51C3.61 23.56 3.67 23.61 3.73 23.65C3.78 23.68 3.85 23.72 3.91 23.75C3.98 23.77 4.05 23.79 4.12 23.81C4.19 23.82 4.26 23.83 4.33 23.83ZM8.66 4.33L17.33 4.33L17.33 3.24L8.66 3.24L8.66 4.33Z" fill="#3D3D3D" fill-opacity="1.000000" fill-rule="nonzero"/>
	</g>
</svg>
