<svg width="29.000000" height="26.000000" viewBox="0 0 29 26" fill="none" xmlns="http://www.w3.org/2000/svg" xmlns:xlink="http://www.w3.org/1999/xlink">
	<desc>
			Created with Pixso.
	</desc>
	<defs/>
	<path id="path" d="M1.47 13.74L1.47 16.7C1.47 16.77 1.47 16.84 1.48 16.92C1.49 16.99 1.5 17.06 1.51 17.13C1.53 17.2 1.54 17.27 1.56 17.34C1.59 17.41 1.61 17.48 1.64 17.55C1.67 17.61 1.7 17.68 1.73 17.74C1.77 17.81 1.8 17.87 1.84 17.93C1.88 17.99 1.93 18.05 1.97 18.1C2.02 18.16 2.07 18.21 2.12 18.26C2.17 18.31 2.22 18.36 2.28 18.41C2.33 18.45 2.39 18.5 2.45 18.54C2.51 18.58 2.57 18.62 2.64 18.65C2.7 18.68 2.77 18.71 2.84 18.74C2.9 18.77 2.97 18.79 3.04 18.82C3.11 18.84 3.18 18.85 3.25 18.87C3.32 18.88 3.39 18.89 3.46 18.9C3.54 18.91 3.61 18.91 3.68 18.91C3.75 18.91 3.83 18.91 3.9 18.9C3.97 18.89 4.04 18.88 4.11 18.87C4.18 18.85 4.25 18.84 4.32 18.82C4.39 18.79 4.46 18.77 4.53 18.74C4.59 18.71 4.66 18.68 4.72 18.65C4.79 18.62 4.85 18.58 4.91 18.54C4.97 18.5 5.03 18.45 5.08 18.41C5.14 18.36 5.19 18.31 5.25 18.26C5.3 18.21 5.35 18.16 5.39 18.1C5.44 18.05 5.48 17.99 5.52 17.93C5.56 17.87 5.6 17.81 5.63 17.74C5.67 17.68 5.7 17.61 5.73 17.55C5.75 17.48 5.78 17.41 5.8 17.34C5.82 17.27 5.84 17.2 5.85 17.13C5.87 17.06 5.88 16.99 5.88 16.92C5.89 16.84 5.89 16.77 5.89 16.7L5.89 13.74C5.89 13.67 5.89 13.6 5.88 13.53C5.88 13.45 5.87 13.38 5.85 13.31C5.84 13.24 5.82 13.17 5.8 13.1C5.78 13.03 5.75 12.96 5.73 12.9C5.7 12.83 5.67 12.77 5.63 12.7C5.6 12.64 5.56 12.58 5.52 12.52C5.48 12.45 5.44 12.4 5.39 12.34C5.35 12.28 5.3 12.23 5.25 12.18C5.19 12.13 5.14 12.08 5.08 12.03C5.03 11.99 4.97 11.94 4.91 11.9C4.85 11.86 4.79 11.83 4.72 11.79C4.66 11.76 4.59 11.73 4.53 11.7C4.46 11.67 4.39 11.65 4.32 11.63C4.25 11.61 4.18 11.59 4.11 11.57C4.04 11.56 3.97 11.55 3.9 11.54C3.83 11.54 3.75 11.53 3.68 11.53C3.61 11.53 3.54 11.54 3.46 11.54C3.39 11.55 3.32 11.56 3.25 11.57C3.18 11.59 3.11 11.61 3.04 11.63C2.97 11.65 2.9 11.67 2.84 11.7C2.77 11.73 2.7 11.76 2.64 11.79C2.57 11.83 2.51 11.86 2.45 11.9C2.39 11.94 2.33 11.99 2.28 12.03C2.22 12.08 2.17 12.13 2.12 12.18C2.07 12.23 2.02 12.28 1.97 12.34C1.93 12.4 1.88 12.45 1.84 12.52C1.8 12.58 1.77 12.64 1.73 12.7C1.7 12.77 1.67 12.83 1.64 12.9C1.61 12.96 1.59 13.03 1.56 13.1C1.54 13.17 1.53 13.24 1.51 13.31C1.5 13.38 1.49 13.45 1.48 13.53C1.47 13.6 1.47 13.67 1.47 13.74ZM21.8 19.38C21.62 19.21 21.45 19.02 21.31 18.81C21.16 18.61 21.04 18.39 20.94 18.16C20.84 17.93 20.77 17.69 20.72 17.44C20.67 17.2 20.64 16.95 20.64 16.7L20.64 13.74C20.64 13.62 20.65 13.5 20.66 13.38C20.67 13.26 20.69 13.15 20.71 13.03C20.73 12.91 20.76 12.79 20.8 12.68C20.83 12.56 20.87 12.45 20.92 12.34C20.96 12.23 21.02 12.12 21.07 12.01C21.13 11.91 21.19 11.81 21.26 11.71C21.32 11.61 21.39 11.51 21.47 11.42C21.55 11.32 21.63 11.23 21.71 11.15C21.8 11.06 21.88 10.98 21.98 10.91C22.07 10.83 22.17 10.76 22.27 10.69C22.37 10.62 22.47 10.56 22.57 10.5C22.68 10.45 22.79 10.39 22.9 10.35C23.01 10.3 23.12 10.26 23.24 10.22C23.35 10.19 23.47 10.16 23.59 10.14C23.7 10.11 23.82 10.09 23.94 10.08C24.06 10.07 24.18 10.06 24.3 10.06C23.92 4.7 19.46 0.48 14 0.48C8.55 0.48 4.09 4.7 3.71 10.06C3.83 10.06 3.95 10.07 4.07 10.08C4.19 10.09 4.3 10.11 4.42 10.14C4.54 10.16 4.66 10.19 4.77 10.23C4.89 10.26 5 10.3 5.11 10.35C5.22 10.4 5.33 10.45 5.43 10.5C5.54 10.56 5.64 10.62 5.74 10.69C5.84 10.76 5.94 10.83 6.03 10.91C6.12 10.98 6.21 11.06 6.3 11.15C6.38 11.23 6.46 11.32 6.54 11.42C6.61 11.51 6.68 11.61 6.75 11.71C6.82 11.81 6.88 11.91 6.94 12.01C6.99 12.12 7.04 12.23 7.09 12.34C7.13 12.45 7.17 12.56 7.21 12.68C7.24 12.79 7.27 12.91 7.3 13.03C7.32 13.15 7.34 13.26 7.35 13.38C7.36 13.5 7.37 13.62 7.37 13.74L7.37 16.7C7.37 16.82 7.36 16.94 7.35 17.06C7.34 17.18 7.32 17.3 7.3 17.42C7.27 17.54 7.24 17.65 7.21 17.77C7.17 17.88 7.13 18 7.09 18.11C7.04 18.22 6.99 18.33 6.93 18.44C6.88 18.54 6.81 18.65 6.75 18.75C6.68 18.85 6.61 18.94 6.53 19.04C6.45 19.13 6.37 19.22 6.29 19.31C6.2 19.39 6.11 19.47 6.02 19.55C5.93 19.62 5.83 19.7 5.73 19.76C5.63 19.83 5.53 19.89 5.42 19.95C5.31 20.01 5.2 20.06 5.09 20.1C4.98 20.15 4.87 20.19 4.75 20.23C4.64 20.26 4.52 20.29 4.4 20.31C4.28 20.34 4.16 20.35 4.04 20.37C3.92 20.38 3.8 20.38 3.68 20.38C3.56 20.38 3.44 20.38 3.32 20.37C3.2 20.35 3.08 20.34 2.96 20.31C2.84 20.29 2.73 20.26 2.61 20.23C2.5 20.19 2.38 20.15 2.27 20.1C2.16 20.06 2.05 20.01 1.94 19.95C1.84 19.89 1.73 19.83 1.63 19.76C1.53 19.7 1.44 19.62 1.34 19.55C1.25 19.47 1.16 19.39 1.08 19.31C0.99 19.22 0.91 19.13 0.83 19.04C0.76 18.94 0.68 18.85 0.62 18.75C0.55 18.65 0.49 18.54 0.43 18.44C0.37 18.33 0.32 18.22 0.28 18.11C0.23 18 0.19 17.88 0.15 17.77C0.12 17.65 0.09 17.54 0.07 17.42C0.04 17.3 0.02 17.18 0.01 17.06C0 16.94 0 16.82 0 16.7L0 13.74C0 13.57 0.01 13.39 0.03 13.21C0.06 13.03 0.1 12.86 0.15 12.69C0.2 12.52 0.26 12.35 0.34 12.19C0.42 12.03 0.5 11.87 0.6 11.72C0.7 11.57 0.81 11.43 0.92 11.3C1.04 11.16 1.17 11.04 1.31 10.93C1.44 10.81 1.59 10.71 1.74 10.61C1.89 10.52 2.05 10.44 2.21 10.36C2.44 4.05 7.63 -1 14 -1C20.37 -1 25.57 4.05 25.79 10.36C25.96 10.44 26.12 10.52 26.27 10.61C26.42 10.71 26.56 10.81 26.7 10.93C26.84 11.04 26.96 11.16 27.08 11.3C27.2 11.43 27.31 11.57 27.41 11.72C27.51 11.87 27.59 12.03 27.67 12.19C27.74 12.35 27.81 12.52 27.86 12.69C27.91 12.86 27.95 13.03 27.97 13.21C28 13.39 28.01 13.57 28.01 13.74L28.01 16.7C28.01 16.77 28.01 16.85 28.01 16.92C28 16.99 28 17.07 27.99 17.14C27.98 17.21 27.97 17.28 27.95 17.36C27.94 17.43 27.93 17.5 27.91 17.57C27.89 17.64 27.87 17.71 27.85 17.78C27.83 17.85 27.8 17.92 27.78 17.99C27.75 18.06 27.72 18.13 27.69 18.2C27.66 18.26 27.63 18.33 27.6 18.39C27.56 18.46 27.53 18.52 27.49 18.59C27.45 18.65 27.41 18.71 27.37 18.77C27.33 18.83 27.29 18.89 27.24 18.95C27.2 19.01 27.15 19.07 27.1 19.12C27.06 19.18 27.01 19.23 26.95 19.28C26.9 19.34 26.85 19.39 26.79 19.43C26.74 19.48 26.68 19.53 26.63 19.58C26.57 19.62 26.51 19.67 26.45 19.71C26.39 19.75 26.33 19.79 26.27 19.83C26.2 19.87 26.14 19.91 26.08 19.94C26.01 19.98 25.95 20.01 25.88 20.04C25.81 20.07 25.75 20.1 25.68 20.13C25.61 20.15 25.54 20.18 25.47 20.2C25.4 20.22 25.33 20.24 25.26 20.26C25.19 20.28 25.12 20.3 25.04 20.31C24.97 20.33 24.9 20.34 24.83 20.35C24.75 20.36 24.68 20.37 24.61 20.37C24.53 20.38 24.46 20.38 24.39 20.38C24.31 20.38 24.24 20.38 24.17 20.38C24.09 20.38 24.02 20.37 23.95 20.36C23.87 20.36 23.8 20.35 23.73 20.33C23.66 20.32 23.58 20.31 23.51 20.29C23.44 20.28 23.37 20.26 23.3 20.24C23.23 20.22 23.16 20.19 23.09 20.17C22.39 20.9 21.62 21.54 20.77 22.09C19.92 22.63 19.02 23.07 18.06 23.4C18.06 23.48 18.05 23.57 18.04 23.65C18.03 23.73 18.02 23.81 18 23.89C17.98 23.98 17.96 24.06 17.93 24.13C17.91 24.21 17.88 24.29 17.84 24.37C17.81 24.44 17.77 24.52 17.73 24.59C17.69 24.66 17.65 24.73 17.6 24.8C17.55 24.87 17.5 24.94 17.45 25C17.39 25.06 17.34 25.13 17.28 25.18C17.22 25.24 17.16 25.3 17.09 25.35C17.03 25.4 16.96 25.45 16.89 25.49C16.82 25.54 16.75 25.58 16.67 25.62C16.6 25.66 16.52 25.69 16.45 25.72C16.37 25.76 16.29 25.78 16.21 25.81C16.13 25.83 16.05 25.85 15.97 25.87C15.89 25.88 15.8 25.89 15.72 25.9C15.64 25.91 15.55 25.91 15.47 25.91L13.27 25.91C11.84 25.91 10.69 24.76 10.69 23.33C10.69 21.9 11.84 20.75 13.27 20.75L15.47 20.75C16.4 20.75 17.22 21.24 17.67 21.97C18.45 21.7 19.18 21.34 19.88 20.91C20.58 20.47 21.22 19.96 21.8 19.38ZM22.11 13.74L22.11 16.7C22.11 16.77 22.12 16.84 22.13 16.92C22.13 16.99 22.14 17.06 22.16 17.13C22.17 17.2 22.19 17.27 22.21 17.34C22.23 17.41 22.26 17.48 22.28 17.55C22.31 17.61 22.34 17.68 22.38 17.74C22.41 17.81 22.45 17.87 22.49 17.93C22.53 17.99 22.57 18.05 22.62 18.1C22.66 18.16 22.71 18.21 22.76 18.26C22.81 18.31 22.87 18.36 22.92 18.41C22.98 18.45 23.04 18.5 23.1 18.54C23.16 18.58 23.22 18.62 23.28 18.65C23.35 18.68 23.41 18.71 23.48 18.74C23.55 18.77 23.62 18.79 23.68 18.82C23.75 18.84 23.82 18.85 23.89 18.87C23.97 18.88 24.04 18.89 24.11 18.9C24.18 18.91 24.25 18.91 24.33 18.91C24.4 18.91 24.47 18.91 24.54 18.9C24.62 18.89 24.69 18.88 24.76 18.87C24.83 18.85 24.9 18.84 24.97 18.82C25.04 18.79 25.11 18.77 25.17 18.74C25.24 18.71 25.31 18.68 25.37 18.65C25.43 18.62 25.5 18.58 25.56 18.54C25.62 18.5 25.67 18.45 25.73 18.41C25.79 18.36 25.84 18.31 25.89 18.26C25.94 18.21 25.99 18.16 26.04 18.1C26.08 18.05 26.13 17.99 26.17 17.93C26.21 17.87 26.24 17.81 26.28 17.74C26.31 17.68 26.34 17.61 26.37 17.55C26.4 17.48 26.42 17.41 26.44 17.34C26.46 17.27 26.48 17.2 26.5 17.13C26.51 17.06 26.52 16.99 26.53 16.92C26.53 16.84 26.54 16.77 26.54 16.7L26.54 13.74C26.54 13.67 26.53 13.6 26.53 13.53C26.52 13.45 26.51 13.38 26.5 13.31C26.48 13.24 26.46 13.17 26.44 13.1C26.42 13.03 26.4 12.96 26.37 12.9C26.34 12.83 26.31 12.77 26.28 12.7C26.24 12.64 26.21 12.58 26.17 12.52C26.13 12.45 26.08 12.4 26.04 12.34C25.99 12.28 25.94 12.23 25.89 12.18C25.84 12.13 25.79 12.08 25.73 12.03C25.67 11.99 25.62 11.94 25.56 11.9C25.5 11.86 25.43 11.83 25.37 11.79C25.31 11.76 25.24 11.73 25.17 11.7C25.11 11.67 25.04 11.65 24.97 11.63C24.9 11.61 24.83 11.59 24.76 11.57C24.69 11.56 24.62 11.55 24.54 11.54C24.47 11.54 24.4 11.53 24.33 11.53C24.25 11.53 24.18 11.54 24.11 11.54C24.04 11.55 23.97 11.56 23.89 11.57C23.82 11.59 23.75 11.61 23.68 11.63C23.62 11.65 23.55 11.67 23.48 11.7C23.41 11.73 23.35 11.76 23.28 11.79C23.22 11.83 23.16 11.86 23.1 11.9C23.04 11.94 22.98 11.99 22.92 12.03C22.87 12.08 22.81 12.13 22.76 12.18C22.71 12.23 22.66 12.28 22.62 12.34C22.57 12.4 22.53 12.45 22.49 12.52C22.45 12.58 22.41 12.64 22.38 12.7C22.34 12.77 22.31 12.83 22.28 12.9C22.26 12.96 22.23 13.03 22.21 13.1C22.19 13.17 22.17 13.24 22.16 13.31C22.14 13.38 22.13 13.45 22.13 13.53C22.12 13.6 22.11 13.67 22.11 13.74ZM13.27 24.44L15.47 24.44C16.09 24.44 16.58 23.95 16.58 23.33C16.58 22.72 16.09 22.23 15.47 22.23L13.27 22.23C12.65 22.23 12.16 22.72 12.16 23.33C12.16 23.95 12.66 24.44 13.27 24.44Z" fill="#666666" fill-opacity="1.000000" fill-rule="nonzero"/>
</svg>
