<svg width="9.000000" height="9.000000" viewBox="0 0 9 9" fill="none" xmlns="http://www.w3.org/2000/svg" xmlns:xlink="http://www.w3.org/1999/xlink">
	<desc>
			Created with Pixso.
	</desc>
	<defs/>
	<path id="Vector" d="M2.71 1.03C3.28 0.01 3.57 -0.5 4 -0.5C4.42 -0.5 4.71 0.01 5.28 1.03L5.42 1.29C5.59 1.58 5.67 1.73 5.79 1.83C5.92 1.92 6.08 1.96 6.39 2.03L6.68 2.09C7.78 2.34 8.34 2.47 8.47 2.89C8.6 3.31 8.22 3.76 7.47 4.64L7.27 4.87C7.06 5.12 6.95 5.24 6.9 5.4C6.86 5.55 6.87 5.72 6.9 6.05L6.93 6.36C7.05 7.54 7.1 8.13 6.76 8.39C6.42 8.65 5.9 8.41 4.86 7.93L4.59 7.81C4.3 7.67 4.15 7.61 4 7.61C3.84 7.61 3.69 7.67 3.4 7.81L3.13 7.93C2.09 8.41 1.57 8.65 1.23 8.39C0.89 8.13 0.94 7.54 1.06 6.36L1.09 6.05C1.12 5.72 1.13 5.55 1.09 5.4C1.04 5.24 0.93 5.12 0.72 4.87L0.52 4.64C-0.23 3.76 -0.61 3.31 -0.48 2.89C-0.35 2.47 0.21 2.34 1.31 2.09L1.6 2.03C1.91 1.96 2.07 1.92 2.2 1.83C2.32 1.73 2.4 1.58 2.57 1.29L2.71 1.03Z" fill="#FCA422" fill-opacity="1.000000" fill-rule="evenodd"/>
</svg>
