<svg width="43.000000" height="47.000000" viewBox="0 0 43 47" fill="none" xmlns="http://www.w3.org/2000/svg" xmlns:xlink="http://www.w3.org/1999/xlink">
	<desc>
			Created with Pixso.
	</desc>
	<defs/>
	<path id="矢量 18" d="M35.18 47L7.81 47C7.29 47 6.8 46.74 6.43 46.29C6.06 45.85 5.86 45.24 5.86 44.6L5.86 23.07L0 23.07L20.18 0.62C20.54 0.22 21.01 0 21.5 0C21.98 0 22.45 0.22 22.81 0.62L43 23.07L37.13 23.07L37.13 44.6C37.13 45.24 36.93 45.85 36.56 46.29C36.19 46.74 35.7 47 35.18 47ZM23.45 42.21L33.22 42.21L33.22 18.67L21.5 5.62L9.77 18.67L9.77 42.21L19.54 42.21L19.54 27.86L23.45 27.86L23.45 42.21Z" fill="#444444" fill-opacity="1.000000" fill-rule="evenodd"/>
</svg>
