<svg width="42.000000" height="47.000000" viewBox="0 0 42 47" fill="none" xmlns="http://www.w3.org/2000/svg" xmlns:xlink="http://www.w3.org/1999/xlink">
	<desc>
			Created with Pixso.
	</desc>
	<defs/>
	<path id="矢量 525" d="M26.43 28.42C31.09 26.44 34.3 22.21 34.3 17.31L34.3 12.3C34.3 5.51 28.12 0 20.5 0C12.87 0 6.69 5.51 6.69 12.3L6.69 17.31C6.69 22.21 9.91 26.44 14.56 28.42C6.74 30.5 0.85 36.56 -0.08 43.95C-0.3 45.68 1.31 47 3.1 47L37.89 47C39.68 47 41.29 45.68 41.07 43.95C40.14 36.56 34.26 30.5 26.43 28.42L26.43 28.42ZM8.9 12.3C8.9 6.58 14.1 1.95 20.5 1.95C26.89 1.95 32.09 6.58 32.09 12.3L32.09 17.31C32.09 23.03 26.89 27.66 20.5 27.66C14.1 27.66 8.9 23.03 8.9 17.31L8.9 12.3L8.9 12.3ZM20.5 29.61C10.99 29.61 3.15 35.98 2.12 44.17C2.06 44.59 2.46 45.04 3.1 45.04L37.89 45.04C38.53 45.04 38.93 44.59 38.87 44.17C37.84 35.98 30.01 29.61 20.5 29.61L20.5 29.61Z" fill="#000000" fill-opacity="1.000000" fill-rule="evenodd"/>
</svg>
