<svg width="45.000000" height="49.000000" viewBox="0 0 45 49" fill="none" xmlns="http://www.w3.org/2000/svg" xmlns:xlink="http://www.w3.org/1999/xlink">
	<desc>
			Created with Pixso.
	</desc>
	<defs/>
	<path id="path" d="M23.11 10.65C24.58 10.18 25.71 8.26 25.71 5.88C25.71 3.17 24.28 1 22.5 1C20.72 1 19.29 3.18 19.29 5.88C19.29 8.13 20.29 9.98 21.63 10.57L13.81 31.46L5.08 19.83C5.86 19.11 6.38 17.86 6.38 16.4C6.38 14.15 5.17 12.37 3.69 12.37C2.21 12.37 1 14.15 1 16.4C1 18.65 2.21 20.44 3.69 20.44C4.08 20.44 4.42 20.31 4.77 20.11L7.77 42.84C9.21 45.81 15.24 48 22.5 48C29.58 48 35.53 45.69 37.13 42.84L40.78 20.43L32.13 31.67L23.11 10.65ZM41.3 12.37C39.83 12.37 38.61 14.15 38.61 16.4C38.61 18.65 39.83 20.44 41.3 20.44C42.78 20.44 44 18.65 44 16.4C44 14.15 42.78 12.37 41.3 12.37Z" fill="#FFFFFF" fill-opacity="1.000000" fill-rule="nonzero"/>
	<path id="path" d="M25.71 5.88C25.71 3.17 24.28 1 22.5 1C20.72 1 19.29 3.18 19.29 5.88C19.29 8.13 20.29 9.98 21.63 10.57L13.81 31.46L5.08 19.83C5.86 19.11 6.38 17.86 6.38 16.4C6.38 14.15 5.17 12.37 3.69 12.37C2.21 12.37 1 14.15 1 16.4C1 18.65 2.21 20.44 3.69 20.44C4.08 20.44 4.42 20.31 4.77 20.11L7.77 42.84C9.21 45.81 15.24 48 22.5 48C29.58 48 35.53 45.69 37.13 42.84L40.78 20.43L32.13 31.67L23.11 10.65C24.58 10.18 25.71 8.26 25.71 5.88ZM38.61 16.4C38.61 18.65 39.83 20.44 41.3 20.44C42.78 20.44 44 18.65 44 16.4C44 14.15 42.78 12.37 41.3 12.37C39.83 12.37 38.61 14.15 38.61 16.4Z" stroke="#000000" stroke-opacity="1.000000" stroke-width="2.000000"/>
</svg>
